<?xml version="1.0" encoding="UTF-8"?>
<svg width="141px" height="43px" viewBox="0 0 141 43" version="1.1" xmlns="http://www.w3.org/2000/svg" xmlns:xlink="http://www.w3.org/1999/xlink">
    <!-- Generator: Sketch 48.2 (47327) - http://www.bohemiancoding.com/sketch -->
    <title>Group 3</title>
    <desc>Created with Sketch.</desc>
    <defs></defs>
    <g id="Health-Samurai" stroke="none" stroke-width="1" fill="none" fill-rule="evenodd" transform="translate(-657.000000, -198.000000)">
        <g id="Group-3" transform="translate(658.000000, 199.000000)">
            <g id="Group-58">
                <path d="M12.9215135,30.8797468 C12.3996732,30.8797468 11.8835817,30.7707893 11.4062753,30.559849 C9.51270423,29.723006 8.65605687,27.5095681 9.49289984,25.6159971 L17.1139735,8.37137063 C17.7595298,6.91063462 19.2061574,5.96835443 20.8031836,5.96835443 C22.4002097,5.96835443 23.8468373,6.91063462 24.4923936,8.37137063 L32.0123257,25.3871384 C32.2324374,25.8851973 32.3461322,26.4237276 32.3461322,26.9682566 C32.3461322,29.128513 30.5948983,30.8797468 28.4346419,30.8797468 L26.1827361,25.4229656 L15.1734192,25.4229656 L12.9215135,30.8797468 Z M20.9129273,12.4301016 L17.050708,21.1520285 L24.4355713,21.1520285 L20.9129273,12.4301016 Z" id="Combined-Shape" fill="#EA4A35"></path>
                <path d="M4.41,27.5063291 L0,27.5063291 L0,41 L13.65,41 L13.65,36.6405063 L4.41,36.6405063 L4.41,27.5063291 Z M37.59,36.6405063 L28.35,36.6405063 L28.35,41 L42,41 L42,27.5063291 L37.8,27.5063291 L37.59,27.5063291 L37.59,36.6405063 Z M28.35,3.9443038 L37.8,3.9443038 L37.8,13.4936709 L42,13.4936709 L42,0 L28.35,0 L28.35,3.9443038 Z M13.65,3.9443038 L13.65,0 L0,0 L0,13.4936709 L4.41,13.4936709 L4.41,3.9443038 L13.65,3.9443038 Z" id="Shape" stroke="#404040" fill="#404040"></path>
            </g>
            <path d="M50,30.5915493 L50,10.3943662 L55.4756516,10.3943662 L55.4756516,30.5915493 L50,30.5915493 Z M58.8382493,30.5915493 L58.8382493,10.3943662 L66.4083376,10.3943662 C68.1331765,10.3943662 69.6937216,10.6408426 71.0900197,11.1338028 C72.4863179,11.626763 73.6498822,12.316897 74.5807476,13.2042254 C75.511613,14.0915537 76.2280036,15.1502286 76.7299409,16.3802817 C77.2318781,17.6103348 77.482843,18.9624339 77.482843,20.4366197 C77.482843,21.8920261 77.2295966,23.2394304 76.7230963,24.4788732 C76.216596,25.7183161 75.4933609,26.7910753 74.5533694,27.6971831 C73.6133778,28.6032909 72.4361245,29.312204 71.0215741,29.8239437 C69.6070237,30.3356833 68.0327896,30.5915493 66.2988246,30.5915493 L58.8382493,30.5915493 Z M64.2728335,25.6338028 L66.4904724,25.6338028 C68.1423022,25.6338028 69.4564454,25.1807557 70.4329415,24.2746479 C71.4094376,23.3685401 71.8976783,22.0985997 71.8976783,20.4647887 C71.8976783,18.8685366 71.4071561,17.6103332 70.426097,16.6901408 C69.4450378,15.7699485 68.1331761,15.3098592 66.4904724,15.3098592 L64.2728335,15.3098592 L64.2728335,25.6338028 Z M80.0651603,30.5915493 L80.0651603,10.3943662 L90.1266701,10.3943662 C92.5177166,10.3943662 94.3018485,10.9999939 95.4791195,12.2112676 C96.3278498,13.0845114 96.7522085,14.1924815 96.7522085,15.5352113 C96.7522085,17.6291185 95.7392231,19.1267561 93.7132219,20.028169 C94.9817542,20.4600961 95.9491096,21.0680712 96.6153172,21.8521127 C97.2815248,22.6361542 97.6146236,23.694829 97.6146236,25.028169 C97.6146236,26.7652669 96.9598335,28.1267556 95.6502336,29.1126761 C94.3406337,30.0985965 92.5177163,30.5915493 90.1814266,30.5915493 L80.0651603,30.5915493 Z M85.3628532,26.0985915 L89.5654158,26.0985915 C90.3958938,26.0985915 91.0392764,25.9342739 91.495583,25.6056338 C91.9518896,25.2769937 92.1800394,24.80282 92.1800394,24.1830986 C92.1800394,23.6197155 91.9564526,23.176058 91.5092721,22.8521127 C91.0620917,22.5281674 90.395894,22.3661972 89.5106593,22.3661972 L85.3628532,22.3661972 L85.3628532,26.0985915 Z M85.3628532,18.4507042 L88.7851354,18.4507042 C90.5008482,18.4507042 91.3586917,17.8450765 91.3586917,16.6338028 C91.3586917,16.0798094 91.1487938,15.6525837 90.7289918,15.3521127 C90.3091897,15.0516417 89.697748,14.9014085 88.8946485,14.9014085 L85.3628532,14.9014085 L85.3628532,18.4507042 Z M99.2250128,20.4929577 C99.2250128,19.0657206 99.4965111,17.7065792 100.039516,16.415493 C100.582521,15.1244067 101.319445,14.0093944 102.25031,13.0704225 C103.181176,12.1314507 104.303673,11.3849793 105.617836,10.8309859 C106.931999,10.2769925 108.332839,10 109.820399,10 C111.307958,10 112.706517,10.2746451 114.016117,10.8239437 C115.325717,11.3732422 116.443651,12.1150188 117.369953,13.0492958 C118.296256,13.9835727 119.026335,15.0962377 119.560214,16.3873239 C120.094093,17.6784102 120.361028,19.0469411 120.361028,20.4929577 C120.361028,21.9201949 120.08953,23.2816837 119.546525,24.5774648 C119.00352,25.8732459 118.266596,26.9906056 117.33573,27.9295775 C116.404865,28.8685493 115.282368,29.6150207 113.968205,30.1690141 C112.654042,30.7230075 111.253202,31 109.765642,31 C107.785272,31 105.987451,30.5328685 104.372125,29.5985915 C102.7568,28.6643146 101.495131,27.3967216 100.587081,25.7957746 C99.679031,24.1948277 99.2250128,22.4272397 99.2250128,20.4929577 Z M104.796488,20.4929577 C104.796488,21.985923 105.27104,23.2676003 106.220158,24.3380282 C107.169275,25.4084561 108.369344,25.943662 109.820399,25.943662 C111.289706,25.943662 112.489774,25.4154982 113.42064,24.3591549 C114.351505,23.3028116 114.816931,22.0140921 114.816931,20.4929577 C114.816931,18.9999925 114.342379,17.7183152 113.393261,16.6478873 C112.444144,15.5774594 111.234949,15.0422535 109.765642,15.0422535 C108.314587,15.0422535 107.123645,15.5704173 106.192779,16.6267606 C105.261914,17.6831039 104.796488,18.9718234 104.796488,20.4929577 Z M120.096006,30.5915493 L126.817369,20.3239437 L120.369789,10.3943662 L126.625721,10.3943662 L130.10276,16.084507 L133.607177,10.3943662 L139.712528,10.3943662 L133.264949,20.2676056 L140,30.5915493 L133.744068,30.5915493 L129.979558,24.5070423 L126.201358,30.5915493 L120.096006,30.5915493 Z" id="Aidbox" fill="#404040"></path>
        </g>
    </g>
</svg>