<?xml version="1.0" encoding="UTF-8"?>
<svg width="176px" height="33px" viewBox="0 0 176 33" version="1.1" xmlns="http://www.w3.org/2000/svg" xmlns:xlink="http://www.w3.org/1999/xlink">
    <!-- Generator: Sketch 51.2 (57519) - http://www.bohemiancoding.com/sketch -->
    <title>Group 13</title>
    <desc>Created with Sketch.</desc>
    <defs></defs>
    <g id="Page-27" stroke="none" stroke-width="1" fill="none" fill-rule="evenodd">
        <g id="Group-13">
            <g id="Group" transform="translate(0.000000, 0.672419)">
                <path d="M57.4915925,31.1622256 L57.4915925,8.56961203 L62.4256116,8.56961203 L62.4256116,11.0690822 C63.8106063,9.186355 65.6175645,8.24500551 67.8465404,8.24500551 C70.0105946,8.24500551 71.8716534,9.05651369 73.4297725,10.6795544 C74.9878915,12.3025951 75.7669394,14.5098973 75.7669394,17.3015273 C75.7669394,20.0715168 74.9933016,22.2625888 73.4460028,23.8748093 C71.898704,25.4870297 70.0322352,26.2931278 67.8465404,26.2931278 C65.6824861,26.2931278 63.8755279,25.4275191 62.4256116,23.6962757 L62.4256116,31.1622256 L57.4915925,31.1622256 Z M63.5617344,20.774817 C64.384075,21.6620793 65.3903451,22.1057038 66.580575,22.1057038 C67.7708048,22.1057038 68.7770749,21.6566692 69.5994156,20.7585867 C70.4217562,19.8605042 70.8329203,18.6865224 70.8329203,17.236606 C70.8329203,15.8299707 70.4217562,14.6776291 69.5994156,13.7795466 C68.7770749,12.8814641 67.7708048,12.4324296 66.580575,12.4324296 C65.3903451,12.4324296 64.389485,12.8814641 63.5779647,13.7795466 C62.7664443,14.6776291 62.3606903,15.851611 62.3606903,17.3015273 C62.3606903,18.7081626 62.7610343,19.8659143 63.5617344,20.774817 Z M82.916398,26.2931278 C81.2067952,26.2931278 79.7839508,25.817043 78.6478223,24.8648591 C77.5116938,23.9126753 76.9436381,22.592622 76.9436381,20.9046596 C76.9436381,19.0652135 77.5766145,17.6802396 78.8425862,16.7496962 C80.108558,15.8191529 81.8127252,15.3538882 83.9551389,15.3538882 C85.4050552,15.3538882 86.8224895,15.5919306 88.2074842,16.0680226 L88.2074842,15.7758767 C88.2074842,13.6551035 86.9631717,12.5947328 84.4745093,12.5947328 C82.9813119,12.5947328 81.3799357,12.908516 79.6703329,13.5360917 L78.4368281,9.77065614 C80.5576013,8.84011281 82.808184,8.37484812 85.1886436,8.37484812 C87.8071493,8.37484812 89.765589,9.02405466 91.0640216,10.3224872 C92.3191731,11.5776387 92.9467394,13.4278773 92.9467394,15.8732586 L92.9467394,25.9685213 L88.1750236,25.9685213 L88.1750236,24.0858035 C86.8549505,25.5573604 85.1020928,26.2931278 82.916398,26.2931278 Z M84.409588,22.8847594 C85.5565368,22.8847594 86.4870661,22.5980265 87.201204,22.0245521 C87.9153419,21.4510777 88.2724055,20.7207204 88.2724055,19.8334581 L88.2724055,18.9570206 C87.3418622,18.5242097 86.2923116,18.3078075 85.1237223,18.3078075 C84.0416952,18.3078075 83.2031368,18.5187996 82.6080218,18.9407902 C82.0129069,19.3627808 81.7153539,19.974117 81.7153539,20.774817 C81.7153539,21.4240333 81.9642164,21.9379885 82.4619489,22.316698 C82.9596814,22.6954075 83.6088879,22.8847594 84.409588,22.8847594 Z M101.492006,26.2606672 C99.8689654,26.2606672 98.6192428,25.8657332 97.7428008,25.0758534 C96.8663588,24.2859736 96.4281444,22.93887 96.4281444,21.0345023 L96.4281444,12.7894967 L94.3506627,12.7894967 L94.3506627,8.56961203 L96.4281444,8.56961203 L96.4281444,4.12250276 L101.362163,4.12250276 L101.362163,8.56961203 L105.452206,8.56961203 L105.452206,12.7894967 L101.362163,12.7894967 L101.362163,20.222986 C101.362163,21.3482942 101.892349,21.9109398 102.952735,21.9109398 C103.818357,21.9109398 104.629865,21.7053578 105.387284,21.2941875 L105.387284,25.254387 C104.261976,25.9252438 102.963563,26.2606672 101.492006,26.2606672 Z M107.667645,25.9685213 L107.667645,7.20626466 C107.667645,4.48128119 109.876681,2.27224561 112.601664,2.27224561 L112.601664,11.0366216 C114.051581,9.17553489 115.750338,8.24500551 117.697987,8.24500551 C119.559073,8.24500551 121.008968,8.81847129 122.047714,9.96542005 C123.08646,11.1123688 123.605825,12.6921047 123.605825,14.7046752 L123.605825,25.9685213 L118.671806,25.9685213 L118.671806,16.2627865 C118.671806,15.1158377 118.412123,14.2394089 117.89275,13.6334737 C117.373377,13.0275385 116.63761,12.7245754 115.685426,12.7245754 C114.733242,12.7245754 113.981245,13.0275385 113.429411,13.6334737 C112.877577,14.2394089 112.601664,15.1158377 112.601664,16.2627865 L112.601664,25.9685213 L107.667645,25.9685213 Z" id="path" fill="#404040"></path>
                <g id="Group-2" transform="translate(34.306889, 0.113432)">
                    <path d="M0.185744019,26.1572114 L0.185744019,8.24637775 L6.11491706,8.24637775 L6.11491706,17.3560307 L6.11491706,20.2280383 C6.11491706,23.5026302 3.46033587,26.1572114 0.185744019,26.1572114 Z" id="Combined-Shape" fill="#404040"></path>
                    <path d="M3.17451202,0.0300101249 L3.17451202,0.0300101249 C4.82516301,0.0300101249 6.16328003,1.36812714 6.16328003,3.01877813 L6.16328003,6.00754614 L0.185744019,6.00754614 L0.185744019,3.01877813 C0.185744019,1.36812714 1.52386103,0.0300101249 3.17451202,0.0300101249 Z" id="Rectangle-5" fill="#EA4A35"></path>
                </g>
                <path d="M2.26699175,26.1876193 L2.26699175,12.8625662 L0.0856359583,12.8625662 L0.0856359583,8.5344793 L2.26699175,8.5344793 C1.96403482,6.2108926 2.49621657,4.30600181 3.86353699,2.81980694 C5.91451761,0.590514628 9.93696506,0.78758206 11.7195335,0.78758206 L11.7195335,5.23520381 C9.81640972,5.23520381 8.83280847,5.35178316 8.02825852,5.96922645 C7.28748055,6.53772861 7.03880581,7.40435445 7.28223428,8.56910399 L11.7195335,8.56910399 L11.7195335,12.8625662 L7.5299454,12.8625662 L7.5299454,20.9246656 C7.5299454,23.8313147 5.17364079,26.1876193 2.26699175,26.1876193 Z M14.1605745,26.1876193 L14.1605745,6.17454554 C14.1605745,3.2678965 16.5168791,0.911591893 19.4235282,0.911591893 L19.4235282,11.3422813 C20.9701056,9.35712217 22.7821132,8.36455751 24.8596053,8.36455751 C26.8447644,8.36455751 28.3913187,8.97625434 29.4993144,10.1996663 C30.6073102,11.4230784 31.1612998,13.10813 31.1612998,15.2548718 L31.1612998,26.1876193 L25.8983462,26.1876193 L25.8983462,16.9168572 C25.8983462,15.6934452 25.6213514,14.7585878 25.0673535,14.1122569 C24.5133556,13.465926 23.728537,13.1427654 22.7128742,13.1427654 C21.6972114,13.1427654 20.8950807,13.465926 20.3064579,14.1122569 C19.7178351,14.7585878 19.4235282,15.6934452 19.4235282,16.9168572 L19.4235282,26.1876193 L14.1605745,26.1876193 Z M43.1587567,26.1876193 L43.1587567,8.36186619 L48.4217104,8.36186619 L48.4217104,12.1013333 C49.6220391,9.26209406 51.595627,7.90020301 54.3425332,8.01561924 L54.3425332,13.5209458 L54.0655356,13.5209458 C52.2650425,13.5209458 50.8742978,14.0691646 49.8932599,15.1656188 C48.912222,16.2620729 48.4217104,17.1621046 48.4217104,19.3319297 L48.4217104,26.1876193 L43.1587567,26.1876193 Z" id="fhirbase" fill="#404040"></path>
            </g>
            <path d="M130.159135,22.0717206 L130.159135,22.0717206 C131.809786,22.0717206 133.147903,23.4098376 133.147903,25.0604886 L133.147903,25.0604886 C133.147903,26.7111396 131.809786,28.0492566 130.159135,28.0492566 L130.159135,28.0492566 C128.508484,28.0492566 127.170367,26.7111396 127.170367,25.0604886 L127.170367,25.0604886 C127.170367,23.4098376 128.508484,22.0717206 130.159135,22.0717206 Z" id="Rectangle-5" fill="#EA4A35"></path>
            <path d="M137.104874,31.8346448 L137.104874,9.24203128 L142.038893,9.24203128 L142.038893,11.7415015 C143.423888,9.85877425 145.230846,8.91742476 147.459822,8.91742476 C149.623876,8.91742476 151.484935,9.72893294 153.043054,11.3519736 C154.601173,12.9750143 155.380221,15.1823166 155.380221,17.9739466 C155.380221,20.743936 154.606583,22.9350081 153.059284,24.5472285 C151.511985,26.1594489 149.645516,26.9655471 147.459822,26.9655471 C145.295767,26.9655471 143.488809,26.0999383 142.038893,24.3686949 L142.038893,31.8346448 L137.104874,31.8346448 Z M143.175016,21.4472363 C143.997356,22.3344985 145.003626,22.778123 146.193856,22.778123 C147.384086,22.778123 148.390356,22.3290885 149.212697,21.431006 C150.035037,20.5329234 150.446202,19.3589416 150.446202,17.9090253 C150.446202,16.50239 150.035037,15.3500484 149.212697,14.4519659 C148.390356,13.5538833 147.384086,13.1048488 146.193856,13.1048488 C145.003626,13.1048488 144.002766,13.5538833 143.191246,14.4519659 C142.379726,15.3500484 141.973972,16.5240302 141.973972,17.9739466 C141.973972,19.3805818 142.374316,20.5383335 143.175016,21.4472363 Z" id="Combined-Shape" fill="#404040" fill-rule="nonzero"></path>
            <text id="g" font-family="GothamPro-Bold, Gotham Pro" font-size="33" font-weight="bold" letter-spacing="-1.44375014" fill="#404040">
                <tspan x="155.550588" y="26.8346448">g</tspan>
            </text>
        </g>
    </g>
</svg>