<?xml version="1.0" encoding="UTF-8"?>
<svg width="319px" height="87px" viewBox="0 0 319 87" version="1.1" xmlns="http://www.w3.org/2000/svg" xmlns:xlink="http://www.w3.org/1999/xlink">
    <!-- Generator: Sketch 51.2 (57519) - http://www.bohemiancoding.com/sketch -->
    <title>Group 3</title>
    <desc>Created with Sketch.</desc>
    <defs></defs>
    <g id="Page-27" stroke="none" stroke-width="1" fill="none" fill-rule="evenodd">
        <g id="Group-3" transform="translate(0.000000, -0.951463)">
            <g id="fhirbase" transform="translate(0.710852, 1.414984)" fill="#979797" fill-rule="nonzero">
                <path d="M51.2974851,33.4558911 C51.0452293,31.7229551 50.6901383,29.9719008 50.1055167,28.3318947 C49.3362474,26.1763913 48.3721046,24.082841 47.3511476,22.036048 C46.6500564,20.6286586 45.7620455,19.3077699 44.8621029,18.0190266 C43.9803413,16.7548308 43.0190389,15.5426525 42.0185354,14.3754777 C41.0907538,13.2942192 40.0629788,12.3035526 39.0397494,11.2304767 C39.3073461,12.4596046 39.5993726,13.5759309 39.7834514,14.7097911 C40.0555937,16.387203 39.9908247,18.062277 39.4317696,19.6812423 C39.1045173,20.6298275 38.6357981,21.5006789 37.8591437,22.2131406 C37.134758,19.3650473 36.1916363,16.6753438 34.96217,14.0955194 C33.8037215,11.6647335 32.4396043,9.35960726 30.7397143,7.29235791 C29.7954559,6.1433016 28.7267748,5.10354007 27.6989997,4.02987959 C27.3808381,3.6949817 27.0268837,3.39164487 26.6649749,3.10584194 C25.1128024,1.87379173 23.4379098,0.845719477 21.6596151,0 L21.3119092,0 C21.3130456,1.60727613 21.4261068,3.22624154 21.2823659,4.81890606 C21.1443064,6.35253972 20.8505761,7.89377145 20.4318526,9.37304994 C19.3466946,13.215901 17.6081705,16.7641823 15.4600127,20.0862759 C14.0294228,22.2973034 12.4857718,24.4323506 10.9824586,26.5925297 C10.7512232,26.9250897 10.4586284,27.2120616 10.1234228,27.6024835 C9.98252311,24.0501111 9.49505403,20.7338621 7.66335366,17.6426317 C7.62244713,17.8904445 7.59688059,18.0342227 7.57529108,18.1780008 C7.4792745,18.84955 7.42586887,19.5316195 7.28042369,20.1926483 C6.77647875,22.4936833 5.81688125,24.620548 4.84932962,26.741568 C3.8073511,29.0256535 2.61651838,31.2495393 1.73077974,33.5955779 C0.516084973,36.8136367 -0.0798994743,40.1696297 0.284281722,43.6670625 C0.467224526,45.4286371 0.908673399,47.094944 1.63021805,48.6805949 C2.91309032,51.4988806 4.91580262,53.7438071 7.20486031,55.7146196 C9.36324412,57.572631 11.7068444,59.1699712 14.171459,60.5744384 C14.3225859,60.6609392 14.4720082,60.7509464 14.7503991,60.9151809 C14.6151808,60.5487218 14.5487071,60.3359771 14.4612126,60.1325836 C13.2379961,57.3230649 12.3715742,54.4457484 12.6380342,51.3019163 C12.7476869,50.0108352 13.0283498,48.7752781 13.477753,47.5788803 C14.2714526,45.4637047 15.5776187,43.6419304 16.7127725,41.720797 C17.8888333,39.7283592 18.8433179,37.6295489 19.4745279,35.3822845 C19.5688402,35.0485555 19.7040585,34.7265158 19.8040521,34.3939558 C19.9006363,34.0713316 19.9761998,33.7428629 20.0983507,33.2723693 C21.6692731,36.1011753 22.1078818,38.9510218 21.6562056,42.0235496 C22.4828569,40.9493044 23.2862146,39.88558 23.8895849,38.713145 C26.0360379,34.545332 26.9115507,30.0864557 26.5263482,25.2903438 C31.8902085,29.488549 35.2990804,34.9287404 36.9313625,41.5413667 C38.5608031,48.1440568 38.1324216,54.5883577 35.1695434,60.8538121 C35.3570315,60.7895212 35.4524793,60.7760784 35.5269063,60.7281524 C37.559731,59.4277201 39.5817604,58.1191049 41.4680028,56.5796266 C43.2752728,55.1026859 44.9155091,53.4615107 46.3858685,51.6596083 C48.0283765,49.6472984 49.3277259,47.3912672 50.2231226,44.9102175 C50.9963689,42.7664033 51.5201982,40.5612205 51.5412199,38.2724594 C51.5571275,36.6657676 51.5281526,35.0392041 51.2974851,33.4558911 Z M44.8478998,67.5903448 C43.9388672,65.1642344 42.8872302,64.3068257 40.2408089,64.2641599 C34.2860775,64.3062414 28.3307778,64.2524706 22.37491,64.2641599 C20.7761491,64.2670821 19.2802219,64.5873686 18.8353636,66.4436265 C18.1348408,69.3636088 17.5002225,72.3069697 17.0042319,75.2702024 C16.7536795,76.7699371 17.1985368,77.6933903 19.1302315,77.6822856 C28.4330434,77.6250079 37.7352873,77.6191634 47.0375319,77.6822856 C48.5862959,77.4946725 48.4033527,76.754741 47.9863341,75.5916574 C47.0238963,72.9095522 45.8699925,70.3157008 44.8478998,67.5903448 Z M44.6183681,80.3065292 C38.3596792,80.3065292 23.9606035,80.3170493 18.6399222,80.3065292 C18.0706401,80.30536 18.0450734,81.1054914 18.1587028,81.3772673 C19.880751,85.5152726 20.159143,85.5789793 24.6832845,85.5930063 C28.7102989,85.6041113 32.7361768,85.615216 36.7631913,85.5930063 C38.1466243,85.5848238 38.7090889,85.5222862 39.8510603,84.8086556 C41.6356058,83.6946671 43.2531154,82.8507011 45.0086849,81.502927 C45.6745513,80.991521 45.9410113,80.3065292 44.6183681,80.3065292 Z M13.8407982,80.3398437 C10.6415716,80.3398437 8.05253319,80.3427659 4.94019307,80.3398437 C4.92773367,82.0780394 10.7915621,84.8063176 11.5602623,85.0821848 C13.3311719,85.7169126 15.1191257,85.5848238 17.2672825,85.3475316 C16.7093641,83.5356929 16.255416,80.3398437 13.8407982,80.3398437 Z M12.1306809,77.8412598 C12.8999493,77.7816445 13.9885157,77.8254791 14.4742801,76.1486518 C15.2787742,73.3724475 16.0844037,70.1088005 16.5559652,67.5500167 C17.1332006,64.416705 16.690047,64.4225495 15.0657194,64.4225495 C14.1493007,64.4225495 13.0749382,64.4389145 12.0028476,64.4225495 C9.60641042,64.3863128 7.20145147,64.4131982 6.43729599,65.6037515 C4.27209401,68.9749403 0.506994689,76.1241043 3.91359426,77.3473876 C5.50269676,77.9867913 11.5750344,77.8839256 12.1306809,77.8412598 Z"></path>
            </g>
            <g id="Group-2" transform="translate(143.105590, 19.576863)">
                <path d="M0.341195237,48.0484702 L0.341195237,15.1478623 L11.2325586,15.1478623 L11.2325586,31.8814844 L11.2325586,37.1571068 C11.2325586,43.1722407 6.35632915,48.0484702 0.341195237,48.0484702 Z" id="Combined-Shape" fill="#404040"></path>
                <path d="M5.83129617,0.0551259296 L5.83129617,0.0551259296 C8.86339519,0.0551259296 11.3213971,2.51312784 11.3213971,5.54522686 L11.3213971,11.0353278 L0.341195237,11.0353278 L0.341195237,5.54522686 C0.341195237,2.51312784 2.79919715,0.0551259296 5.83129617,0.0551259296 Z" id="Rectangle-5" fill="#EA4A35"></path>
            </g>
            <path d="M84.2511491,67.4728261 L84.2511491,42.995889 L80.2441925,42.995889 L80.2441925,35.0455784 L84.2511491,35.0455784 C83.6946442,30.7773564 84.6722147,27.2782415 87.1838606,24.5482337 C90.9513296,20.453222 98.3402077,20.8152174 101.614627,20.8152174 L101.614627,28.9851029 C98.1187582,28.9851029 96.3119703,29.1992488 94.8340836,30.3334372 C93.4733404,31.377725 93.016547,32.9696396 93.4637034,35.1091809 L101.614627,35.1091809 L101.614627,42.995889 L93.9187267,42.995889 L93.9187267,57.8052484 C93.9187267,63.1445041 89.5904048,67.4728261 84.2511491,67.4728261 Z M106.098603,67.4728261 L106.098603,30.7105901 C106.098603,25.3713344 110.426924,21.0430124 115.76618,21.0430124 L115.76618,40.2032609 C118.607105,36.5567002 121.935602,34.7334472 125.75177,34.7334472 C129.398331,34.7334472 132.239213,35.8570799 134.274503,38.1043789 C136.309793,40.3516779 137.327422,43.4469679 137.327422,47.3903416 L137.327422,67.4728261 L127.659845,67.4728261 L127.659845,50.4432609 C127.659845,48.1959618 127.15103,46.4787119 126.133385,45.2914596 C125.11574,44.1042073 123.674098,43.5105901 121.808416,43.5105901 C119.942734,43.5105901 118.469291,44.1042073 117.388044,45.2914596 C116.306796,46.4787119 115.76618,48.1959618 115.76618,50.4432609 L115.76618,67.4728261 L106.098603,67.4728261 Z M159.365683,67.4728261 L159.365683,34.7285035 L169.033261,34.7285035 L169.033261,41.5975718 C171.238158,36.382142 174.863464,33.8804693 179.909286,34.0924786 L179.909286,44.2052737 L179.400466,44.2052737 C176.09312,44.2052737 173.538446,45.2123029 171.736367,47.2263917 C169.934287,49.2404804 169.033261,50.8937585 169.033261,54.8795342 L169.033261,67.4728261 L159.365683,67.4728261 Z" id="fhirbase" fill="#404040"></path>
            <path d="M234.613064,68.1138541 C231.366381,68.1138541 228.664278,67.2177162 226.506672,65.4254136 C224.349066,63.633111 223.27028,61.1483651 223.27028,57.9711014 C223.27028,54.5086987 224.472356,51.9017522 226.876545,50.1501837 C229.280734,48.3986153 232.517094,47.5228442 236.585722,47.5228442 C239.339238,47.5228442 242.031067,47.9709131 244.661291,48.8670644 L244.661291,48.3171562 C244.661291,44.3252095 242.298235,42.3292661 237.572051,42.3292661 C234.736341,42.3292661 231.69519,42.9199024 228.448507,44.1011927 L226.105976,37.0134861 C230.133506,35.2619176 234.407556,34.3861465 238.928254,34.3861465 C243.901021,34.3861465 247.620266,35.6081527 250.086101,38.0522017 C252.469742,40.4147824 253.661544,43.8975 253.661544,48.5004589 L253.661544,67.5028449 L244.599646,67.5028449 L244.599646,63.9589915 C242.092713,66.7289137 238.763886,68.1138541 234.613064,68.1138541 Z M237.44876,61.6982575 C239.626914,61.6982575 241.394069,61.1585381 242.750279,60.0790832 C244.106488,58.9996282 244.784582,57.6248712 244.784582,55.9547711 L244.784582,54.3050463 C243.017401,53.4903633 241.024214,53.0830279 238.804962,53.0830279 C236.7501,53.0830279 235.157605,53.4801799 234.027431,54.2744958 C232.897257,55.0688117 232.332178,56.2195342 232.332178,57.7266978 C232.332178,58.9487223 232.804789,59.9161438 233.750026,60.6289914 C234.695263,61.3418391 235.928162,61.6982575 237.44876,61.6982575 Z" id="Combined-Shape" fill="#404040" fill-rule="nonzero"></path>
            <path d="M270.629486,68.1138541 C265.410135,68.1138541 260.684022,66.4641457 256.451006,63.1646796 L260.457968,57.0545876 C264.074526,59.6615732 267.547191,60.9650465 270.876068,60.9650465 C273.506292,60.9650465 274.821385,60.1096422 274.821385,58.3988079 C274.821385,58.1951371 274.790562,57.9914694 274.728916,57.7877987 C274.66727,57.5841279 274.554255,57.400827 274.389866,57.2378904 C274.225477,57.0749538 274.050816,56.922203 273.865878,56.7796335 C273.680941,56.637064 273.434361,56.4944966 273.126131,56.3519271 C272.817902,56.2093575 272.550774,56.0871569 272.324739,55.9853216 C272.098704,55.8834862 271.780205,55.7612856 271.369233,55.618716 C270.95826,55.4761465 270.608939,55.3641293 270.321258,55.282661 C270.033577,55.2011927 269.643159,55.0891754 269.149992,54.9466059 C268.656825,54.8040364 268.266407,54.6920192 267.978727,54.6105509 C266.58142,54.2032094 265.399892,53.7856906 264.434107,53.357982 C263.468321,52.9302734 262.45118,52.3396371 261.382651,51.5860554 C260.314123,50.8324736 259.502464,49.8752354 258.947651,48.7143121 C258.392838,47.5533889 258.115436,46.1989987 258.115436,44.651101 C258.115436,41.4331032 259.266142,38.8974404 261.567588,37.0440365 C263.869034,35.1906327 266.745798,34.2639447 270.197967,34.2639447 C274.63647,34.2639447 278.746133,35.5266844 282.52708,38.0522017 L278.951637,44.4677982 C275.458371,42.4310907 272.478865,41.4127523 270.01303,41.4127523 C267.711584,41.4127523 266.560879,42.2070563 266.560879,43.7956881 C266.560879,44.8955102 268.451324,46.0767828 272.232271,47.3395415 C272.68434,47.5024781 273.033662,47.6246787 273.280245,47.706147 C274.389871,48.0727543 275.335094,48.4189894 276.115941,48.7448626 C276.896789,49.0707358 277.780367,49.5188047 278.766701,50.0890828 C279.753035,50.6593609 280.544145,51.2601806 281.140055,51.89156 C281.735965,52.5229393 282.239399,53.3274267 282.650371,54.3050463 C283.061344,55.2826659 283.266827,56.3621047 283.266827,57.543395 C283.266827,61.0465319 282.105847,63.6840285 279.783853,65.4559641 C277.461858,67.2278996 274.410433,68.1138541 270.629486,68.1138541 Z" id="Path" fill="#404040" fill-rule="nonzero"></path>
            <path d="M302.947174,68.2360559 C297.93331,68.2360559 293.803098,66.6576313 290.556415,63.5007346 C287.309733,60.343838 285.686416,56.239934 285.686416,51.1888994 C285.686416,46.4230038 287.227539,42.3903835 290.309833,39.0909173 C293.392127,35.7914512 297.296307,34.1417429 302.022491,34.1417429 C307.241841,34.1417429 311.228215,35.8525515 313.98173,39.2742201 C316.735246,42.6958887 318.111983,46.91181 318.111983,51.9221104 C318.111983,52.4109202 318.070887,53.225591 317.988692,54.3661472 L294.994896,54.3661472 C295.446966,56.4435888 296.37164,58.0321969 297.768947,59.1320189 C299.166253,60.231841 300.933408,60.7817437 303.070465,60.7817437 C305.98837,60.7817437 308.659651,59.6615714 311.084389,57.4211932 L316.447553,62.125964 C313.118676,66.199379 308.618595,68.2360559 302.947174,68.2360559 Z M294.871605,48.5615598 L308.98844,48.5615598 C308.700759,46.443384 307.950745,44.7529422 306.738376,43.4901835 C305.526008,42.2274249 303.954061,41.596055 302.022491,41.596055 C300.132017,41.596055 298.560071,42.2172415 297.306605,43.4596331 C296.053139,44.7020246 295.24148,46.4026499 294.871605,48.5615598 Z" id="Combined-Shape" fill="#404040" fill-rule="nonzero"></path>
            <path d="M205.445683,68.1088509 C201.205497,68.1088509 197.664994,66.4128016 194.824069,63.0206522 L194.824069,67.4728261 L185.614325,67.4728261 L185.614325,21.0430124 L194.824069,21.0430124 L194.824069,40.2668634 C197.537788,36.5779008 201.078291,34.7334472 205.445683,34.7334472 C209.68587,34.7334472 213.332376,36.3234934 216.385311,39.5036335 C222.959288,46.4875291 220.991848,58.7087539 216.417112,63.3704658 C213.385378,66.529405 209.728272,68.1088509 205.445683,68.1088509 Z M198.071769,58.0704582 C199.598839,59.718086 201.467462,60.5418876 203.677694,60.5418876 C205.887927,60.5418876 207.75655,59.7080397 209.28362,58.0403188 C210.81069,56.3725979 211.574213,54.1925376 211.574213,51.5000726 C211.574213,48.8879796 210.81069,46.7481048 209.28362,45.0803839 C207.75655,43.412663 205.887927,42.578815 203.677694,42.578815 C201.467462,42.578815 199.608885,43.412663 198.101909,45.0803839 C196.594932,46.7481048 195.841455,48.928165 195.841455,51.6206301 C195.841455,54.2327231 196.584885,56.3826442 198.071769,58.0704582 Z" id="Combined-Shape" fill="#404040" fill-rule="nonzero"></path>
        </g>
    </g>
</svg>